<?xml version="1.0" encoding="utf-8"?>
<!-- Generator: Adobe Illustrator 19.0.0, SVG Export Plug-In . SVG Version: 6.00 Build 0)  -->
<svg version="1.1"
	 id="Layer_1" xmlns:cc="http://creativecommons.org/ns#" xmlns:dc="http://purl.org/dc/elements/1.1/" xmlns:rdf="http://www.w3.org/1999/02/22-rdf-syntax-ns#" xmlns:svg="http://www.w3.org/2000/svg" xmlns:sodipodi="http://sodipodi.sourceforge.net/DTD/sodipodi-0.dtd" xmlns:inkscape="http://www.inkscape.org/namespaces/inkscape" inkscape:version="0.92.3 (2405546, 2018-03-11)" sodipodi:docname="BG top.svg"
	 xmlns="http://www.w3.org/2000/svg" xmlns:xlink="http://www.w3.org/1999/xlink" x="0px" y="0px" viewBox="-50 198.1 510.2 396.9"
	 style="enable-background:new -50 198.1 510.2 396.9;" xml:space="preserve">
<style type="text/css">
	.st0{display:none;}
	.st1{display:inline;fill:url(#path9_1_);}
	.st2{display:inline;fill:url(#path16_1_);}
	.st3{display:inline;fill:#994CC0;}
	.st4{display:inline;}
	.st5{fill:url(#path9_2_);}
	.st6{fill:url(#path16_2_);}
	.st7{fill:url(#path18_1_);}
</style>
<sodipodi:namedview  width="1800mm" inkscape:cy="352.1297" inkscape:cx="415.53989" showgrid="false" guidetolerance="10" gridtolerance="10" units="mm" inkscape:zoom="1.1125147" pagecolor="#ffffff" borderopacity="1" objecttolerance="10" bordercolor="#666666" id="namedview55" inkscape:current-layer="g52" inkscape:window-maximized="1" inkscape:window-y="-8" inkscape:window-x="-8" inkscape:window-height="1017" inkscape:pageshadow="2" inkscape:pageopacity="0" inkscape:window-width="1920">
	</sodipodi:namedview>
<g id="g52" transform="translate(-192.58474,-322.56111)" class="st0">
	
		<linearGradient id="path9_1_" gradientUnits="userSpaceOnUse" x1="400.9762" y1="274.6413" x2="1033.4514" y2="274.6413" gradientTransform="matrix(0.75 0 0 -0.75 -121.2924 918.5729)">
		<stop  offset="0" style="stop-color:#D65DAB"/>
		<stop  offset="1" style="stop-color:#A460D6"/>
	</linearGradient>
	<path id="path9" inkscape:connector-curvature="0" class="st1" d="M653.8,895.5c0,0-132,48.8-207-78.8c0,0-15-37.5-67.5-33.8
		s-74.3-47.3-78-90s-24-65.3-82.5-78c-35.3-11.3-56.3-57.8-21.8-94.5h456.8V895.5z"/>
	
		<linearGradient id="path16_1_" gradientUnits="userSpaceOnUse" x1="420.8138" y1="280.9152" x2="1033.4515" y2="280.9152" gradientTransform="matrix(0.75 0 0 -0.75 -121.2924 918.5729)">
		<stop  offset="0" style="stop-color:#C34996"/>
		<stop  offset="1" style="stop-color:#864ECD"/>
	</linearGradient>
	<path id="path16" inkscape:connector-curvature="0" class="st2" d="M653.8,886.5c0,0-121,56.9-158.9-132.7
		c-0.9-4.7-1.4-9.4-1.5-14.2c-0.5-24.8-10.1-121-127.6-136.7c-2.3,0.8-27.8-6.8-94.5,2.3c-65.6,8.9-95.2-42.8-65.2-84h83.2
		c0,0,1.5,27,48,20.3s239.3-63,257.3,153.8c0,0,11.3,87.8,59.3,120L653.8,886.5z"/>
	<path id="path18" inkscape:connector-curvature="0" class="st3" d="M653.8,627.8c0,0-27-40.5-30-107.3h30V627.8z"/>
	<g id="g38" class="st4">
		<g id="g36">
			<g id="g30">
			</g>
			<g id="g34">
			</g>
		</g>
	</g>
</g>
<g id="g52_1_" transform="translate(-192.58474,-322.56111)">
	<g>
		
			<linearGradient id="path9_2_" gradientUnits="userSpaceOnUse" x1="1078.7306" y1="836.6035" x2="1711.2058" y2="836.6035" gradientTransform="matrix(0.75 0 0 0.75 -629.6082 85.1394)">
			<stop  offset="0" style="stop-color:#D65DAB"/>
			<stop  offset="1" style="stop-color:#7F1333"/>
		</linearGradient>
		<path id="path9_9_" inkscape:connector-curvature="0" class="st5" d="M653.8,896.2c0,0-131.9,49-206.9-79c0,0-15-37.6-67.6-33.9
			c-52.5,3.7-74.2-47.4-78-90.3c-3.6-42.8-24.1-65.5-82.5-78.3c-35.3-11.3-56.2-58-21.8-94.8h456.7L653.8,896.2L653.8,896.2z"/>
		
			<linearGradient id="path16_2_" gradientUnits="userSpaceOnUse" x1="1098.6366" y1="830.412" x2="1711.2058" y2="830.412" gradientTransform="matrix(0.75 0 0 0.75 -629.6082 85.1394)">
			<stop  offset="0" style="stop-color:#C34996"/>
			<stop  offset="1" style="stop-color:#690A2A"/>
		</linearGradient>
		<path id="path16_9_" inkscape:connector-curvature="0" class="st6" d="M653.8,887.2c0,0-120.9,57.1-158.9-133.1
			c-1-4.7-1.4-9.5-1.6-14.2c-0.5-24.9-10.2-121.4-127.6-137.2c-2.3,0.8-27.8-6.9-94.4,2.3c-65.5,8.9-95.2-42.9-65.2-84.3h83.2
			c0,0,1.6,27.1,47.9,20.4c46.5-6.8,239.3-63.2,257.2,154.3c0,0,11.3,88.1,59.2,120.4L653.8,887.2z"/>
		
			<linearGradient id="path18_1_" gradientUnits="userSpaceOnUse" x1="1201.5341" y1="545.2242" x2="1231.5504" y2="545.2242" gradientTransform="matrix(1 0 0 -1 -577.7542 1119.0603)">
			<stop  offset="0" style="stop-color:#7F0337"/>
			<stop  offset="1" style="stop-color:#4E0015"/>
		</linearGradient>
		<path id="path18_9_" inkscape:connector-curvature="0" class="st7" d="M653.8,627.7c0,0-27-40.7-30-107.6h30V627.7z"/>
	</g>
</g>
</svg>
