<?xml version="1.0" encoding="utf-8"?>
<!-- Generator: Adobe Illustrator 25.0.0, SVG Export Plug-In . SVG Version: 6.00 Build 0)  -->
<svg version="1.1" xmlns="http://www.w3.org/2000/svg" xmlns:xlink="http://www.w3.org/1999/xlink" x="0px" y="0px"
	 viewBox="0 0 500 500" style="enable-background:new 0 0 500 500;" xml:space="preserve">
<style type="text/css">
	.st0{fill:#EBEBEB;}
	.st1{display:none;}
	.st2{display:inline;fill:#F5F5F5;}
	.st3{fill:#263238;}
	.st4{fill:#E0E0E0;}
	.st5{fill:#A01769;}
	.st6{fill:#FFFFFF;}
	.st7{fill:#455A64;}
	.st8{opacity:0.6;}
	.st9{fill:#FFBF9D;}
	.st10{fill:#FF9A6C;}
	.st11{opacity:0.3;}
</style>
<g id="Background_Complete">
	<g>
		<g>
			<path class="st0" d="M447.84,167.17c0.7-5.05-6.43-9.2-11.79-9.63c-2.55-0.21-5.21,0.18-7.62-0.66
				c-5.24-1.83-7.33-8.6-12.45-10.75c-3.82-1.61-8.22-0.18-11.93,1.69c-3.71,1.87-7.37,4.21-11.51,4.48
				c-3.6,0.23-7.51-1.11-10.66,0.65c-2.35,1.31-3.58,4.02-5.74,5.61c-2.12,1.56-4.88,1.89-7.51,2.04c-2.63,0.14-5.35,0.17-7.74,1.26
				c-2.39,1.1-4.37,3.63-3.88,6.21L447.84,167.17z"/>
		</g>
	</g>
	<g>
		<g>
			<path class="st0" d="M228.08,120.82c0.7-5.05-6.43-9.2-11.79-9.63c-2.55-0.21-5.21,0.18-7.62-0.66
				c-5.24-1.83-7.33-8.6-12.45-10.75c-3.82-1.61-8.22-0.18-11.93,1.69c-3.71,1.87-7.37,4.21-11.51,4.48
				c-3.6,0.23-7.51-1.11-10.66,0.65c-2.35,1.31-3.58,4.02-5.74,5.61c-2.12,1.56-4.88,1.89-7.51,2.04c-2.63,0.14-5.35,0.17-7.74,1.26
				c-2.39,1.1-4.37,3.63-3.88,6.21L228.08,120.82z"/>
		</g>
	</g>
	<g>
		<g>
			<path class="st0" d="M130.2,278.95c0.7-5.05-6.43-9.2-11.78-9.63c-2.55-0.21-5.21,0.18-7.62-0.66
				c-5.24-1.83-7.33-8.6-12.45-10.75c-3.82-1.61-8.22-0.18-11.93,1.69c-3.71,1.87-7.37,4.21-11.51,4.48
				c-3.6,0.23-7.51-1.11-10.66,0.65c-2.35,1.31-3.58,4.02-5.74,5.61c-2.12,1.56-4.88,1.89-7.51,2.04c-2.63,0.14-5.35,0.17-7.74,1.26
				c-2.39,1.1-4.37,3.63-3.88,6.21L130.2,278.95z"/>
		</g>
	</g>
	<g>
		<g>
			<path class="st0" d="M312.16,210.7c0.42-3.09-3.93-5.62-7.2-5.89c-1.56-0.13-3.18,0.11-4.66-0.4c-3.2-1.12-4.48-5.25-7.61-6.57
				c-2.34-0.99-5.03-0.11-7.29,1.03c-2.26,1.14-4.5,2.57-7.03,2.74c-2.2,0.14-4.59-0.68-6.52,0.4c-1.43,0.8-2.19,2.45-3.51,3.43
				c-1.29,0.95-2.98,1.16-4.59,1.24c-1.61,0.09-3.27,0.1-4.73,0.77c-1.46,0.67-2.67,2.22-2.37,3.79L312.16,210.7z"/>
		</g>
	</g>
</g>
<g id="Background_Simple" class="st1">
	<path class="st2" d="M342.51,88.08l-1.27-2.1c-10.74-17.7-30.17-28.38-50.65-27.08c-2.63,0.17-5.25,0.52-7.84,1.08
		c-18.62,3.99-34.82,18.07-41.54,36.1c-3.95,10.61-5.05,22.82-12.55,31.24c-9.75,10.96-26.32,11.3-40.88,10.85
		c-14.56-0.45-31.13-0.07-40.84,10.93c-6.08,6.89-8.01,16.69-7.52,25.91c1.3,24.43,18.32,46.26,39.96,57.12
		c21.64,10.86,47.13,11.83,70.82,7.05c33.19-6.69,64.74-25.06,83.71-53.44C352.89,157.36,357.69,118.7,342.51,88.08z"/>
	
		<ellipse transform="matrix(0.2279 -0.9737 0.9737 0.2279 163.934 510.7843)" class="st2" cx="404.03" cy="152.03" rx="19.15" ry="19.15"/>
	
		<ellipse transform="matrix(0.922 -0.3872 0.3872 0.922 -95.2807 52.3125)" class="st2" cx="82.2" cy="262.64" rx="19.15" ry="19.15"/>
</g>
<g id="Floor">
	<g>
		<path class="st3" d="M490.79,488.19c0,0.14-107.77,0.26-240.68,0.26c-132.96,0-240.7-0.12-240.7-0.26s107.75-0.26,240.7-0.26
			C383.02,487.93,490.79,488.05,490.79,488.19z"/>
	</g>
</g>
<g id="Arrows">
	<g>
		<polygon class="st4" points="319.05,412.95 394.66,487.95 409.42,487.91 414.67,412.95 		"/>
		<polygon class="st4" points="380.53,420.05 304.35,487.95 357.56,487.87 402.41,450.15 		"/>
	</g>
	<g>
		<polygon class="st4" points="373.37,226.01 467.27,313.05 468.92,222.77 		"/>
		<polygon class="st4" points="436.63,229.77 182.66,487.91 232.7,487.91 459.52,259.11 		"/>
	</g>
	<g>
		<polygon class="st4" points="107.07,325.36 197.97,415.54 202.68,325.36 		"/>
		<polygon class="st4" points="170.17,331.26 6.97,487.91 59.56,487.91 192.05,361.36 		"/>
	</g>
	<g>
		<polygon class="st5" points="186.32,294.4 316.08,423.14 316.08,294.4 		"/>
		<path class="st5" d="M271.94,297.3C269,299.65,82.2,487.91,82.2,487.91h80.48l146.86-147.72L271.94,297.3z"/>
	</g>
</g>
<g id="Sun">
	<g>
		<g>
			
				<ellipse transform="matrix(0.9251 -0.3797 0.3797 0.9251 -21.6655 41.349)" class="st5" cx="93.99" cy="75.6" rx="12.83" ry="12.83"/>
		</g>
		<g>
			<g>
				<path class="st5" d="M92.16,104.29c-0.07,0-0.14-2.37-0.14-5.29c0-2.92,0.06-5.29,0.14-5.29s0.14,2.37,0.14,5.29
					C92.29,101.92,92.23,104.29,92.16,104.29z"/>
			</g>
		</g>
		<g>
			<g>
				<path class="st5" d="M84.76,90.72c0.06,0.04-1.14,2.25-2.7,4.94c-1.55,2.69-2.87,4.84-2.93,4.8c-0.06-0.04,1.14-2.25,2.7-4.94
					C83.39,92.84,84.7,90.68,84.76,90.72z"/>
			</g>
		</g>
		<g>
			<g>
				<path class="st5" d="M77.17,86c0.05,0.06-1.3,1.2-3,2.55c-1.7,1.35-3.12,2.4-3.17,2.34c-0.05-0.06,1.3-1.2,3-2.55
					C75.71,86.99,77.13,85.94,77.17,86z"/>
			</g>
		</g>
		<g>
			<g>
				<path class="st5" d="M104.96,99.08c-0.04,0.01-0.15-0.49-0.34-1.3c-0.18-0.81-0.45-1.92-0.77-3.14
					c-0.33-1.22-0.66-2.31-0.91-3.11c-0.25-0.79-0.4-1.28-0.36-1.3c0.03-0.01,0.25,0.46,0.54,1.23c0.29,0.78,0.66,1.87,0.99,3.1
					c0.33,1.23,0.56,2.35,0.7,3.17C104.95,98.56,105,99.07,104.96,99.08z"/>
			</g>
		</g>
		<g>
			<g>
				<path class="st5" d="M117.98,89.84c-0.05,0.06-1.75-1.35-3.79-3.14c-2.05-1.79-3.66-3.28-3.62-3.34
					c0.05-0.06,1.75,1.35,3.79,3.14C116.41,88.29,118.03,89.79,117.98,89.84z"/>
			</g>
		</g>
		<g>
			<g>
				<path class="st5" d="M122.96,77.15c-0.01,0.04-0.6-0.06-1.55-0.22c-0.95-0.16-2.27-0.36-3.72-0.53
					c-1.46-0.17-2.79-0.27-3.75-0.33c-0.96-0.06-1.56-0.09-1.56-0.13c0-0.04,0.6-0.07,1.57-0.06c0.97,0.01,2.3,0.08,3.77,0.25
					c1.47,0.17,2.78,0.4,3.73,0.61C122.4,76.94,122.97,77.11,122.96,77.15z"/>
			</g>
		</g>
		<g>
			<g>
				<path class="st5" d="M122.98,64.67c0.02,0.07-2.76,0.81-6.2,1.65c-3.45,0.84-6.25,1.46-6.27,1.39
					c-0.02-0.07,2.76-0.81,6.21-1.65C120.16,65.21,122.96,64.59,122.98,64.67z"/>
			</g>
		</g>
		<g>
			<g>
				<path class="st5" d="M108.48,50.12c0.06,0.04-1.27,2.16-2.97,4.74c-1.7,2.57-3.13,4.63-3.19,4.59
					c-0.06-0.04,1.27-2.16,2.97-4.74C106.99,52.14,108.42,50.08,108.48,50.12z"/>
			</g>
		</g>
		<g>
			<g>
				<path class="st5" d="M94.09,47.08c0.04,0,0.03,0.68,0.02,1.76c-0.02,1.09-0.04,2.59-0.04,4.24c0,1.66,0.03,3.16,0.05,4.25
					c0.02,1.09,0.02,1.76-0.01,1.76c-0.04,0-0.11-0.67-0.18-1.75c-0.07-1.09-0.12-2.59-0.12-4.25c0-1.66,0.05-3.17,0.11-4.25
					C93.98,47.75,94.05,47.08,94.09,47.08z"/>
			</g>
		</g>
		<g>
			<g>
				<path class="st5" d="M83.19,60.66c-0.06,0.04-1.42-2.06-3.02-4.68c-1.6-2.63-2.85-4.78-2.79-4.82c0.06-0.04,1.42,2.06,3.02,4.68
					C82,58.46,83.25,60.62,83.19,60.66z"/>
			</g>
		</g>
		<g>
			<g>
				<path class="st5" d="M76.68,66.19c-0.01,0.04-0.53-0.04-1.36-0.22c-0.83-0.18-1.98-0.46-3.23-0.82
					c-1.25-0.37-2.36-0.75-3.16-1.06c-0.8-0.31-1.28-0.52-1.26-0.56c0.01-0.04,0.52,0.12,1.33,0.38c0.81,0.26,1.93,0.61,3.17,0.98
					c1.24,0.37,2.38,0.67,3.2,0.9C76.18,66.01,76.69,66.15,76.68,66.19z"/>
			</g>
		</g>
		<g>
			<g>
				<path class="st5" d="M73.83,76.05c0.01,0.07-1.83,0.31-4.1,0.53c-2.27,0.22-4.11,0.33-4.12,0.26c-0.01-0.07,1.83-0.31,4.1-0.53
					C71.98,76.09,73.83,75.98,73.83,76.05z"/>
			</g>
		</g>
	</g>
</g>
<g id="Clouds">
	<g>
		<g>
			<g>
				<path class="st6" d="M456.14,358.1c0.52-3.8-4.84-6.93-8.87-7.25c-1.92-0.15-3.92,0.14-5.74-0.5c-3.95-1.38-5.52-6.47-9.37-8.1
					c-2.88-1.21-6.19-0.13-8.98,1.27c-2.79,1.4-5.55,3.17-8.67,3.37c-2.71,0.17-5.66-0.83-8.03,0.49c-1.77,0.99-2.69,3.02-4.32,4.23
					c-1.59,1.18-3.67,1.43-5.65,1.53c-1.98,0.11-4.03,0.13-5.83,0.95c-1.8,0.82-3.29,2.73-2.92,4.67L456.14,358.1z"/>
				<g>
					<path class="st3" d="M456.14,358.1c0.01,0.01-0.11,0.01-0.33,0.02c-0.25,0.01-0.58,0.02-1,0.03c-0.92,0.02-2.22,0.04-3.9,0.08
						c-3.44,0.05-8.37,0.13-14.49,0.22c-12.35,0.15-29.46,0.35-48.67,0.59l-0.22,0l-0.04-0.21c-0.22-1.13,0.18-2.34,0.89-3.24
						c0.71-0.92,1.73-1.61,2.84-1.99c2.56-0.87,5.21-0.5,7.63-0.95c1.21-0.21,2.39-0.62,3.31-1.38c0.93-0.75,1.63-1.77,2.47-2.68
						c0.42-0.46,0.88-0.9,1.42-1.24c0.54-0.34,1.13-0.58,1.74-0.72c1.23-0.26,2.45-0.17,3.62-0.09c1.17,0.09,2.32,0.21,3.43,0.08
						c1.11-0.11,2.19-0.43,3.22-0.84c2.06-0.82,3.92-1.99,5.88-2.88c1.94-0.88,4.02-1.51,6.08-1.35c1.02,0.08,2.02,0.37,2.88,0.87
						c0.86,0.49,1.59,1.14,2.24,1.81c1.3,1.36,2.32,2.82,3.51,4c1.16,1.2,2.57,2.05,4.06,2.26c1.48,0.24,2.94,0.11,4.29,0.21
						c2.74,0.22,4.92,1.31,6.46,2.42c1.55,1.14,2.37,2.49,2.6,3.47C456.31,357.56,456.11,358.12,456.14,358.1
						c-0.05-0.02,0.09-0.53-0.16-1.5c-0.25-0.95-1.08-2.24-2.61-3.34c-1.53-1.06-3.69-2.11-6.36-2.29
						c-1.33-0.09-2.78,0.06-4.33-0.17c-1.56-0.2-3.07-1.1-4.27-2.32c-1.23-1.21-2.26-2.67-3.53-3.99c-0.64-0.65-1.34-1.27-2.16-1.73
						c-0.81-0.46-1.75-0.72-2.71-0.8c-1.95-0.14-3.96,0.47-5.86,1.34c-1.91,0.88-3.78,2.06-5.89,2.91
						c-1.05,0.43-2.17,0.76-3.35,0.89c-1.18,0.13-2.36,0.01-3.52-0.07c-1.16-0.09-2.34-0.16-3.47,0.08
						c-1.14,0.24-2.1,0.91-2.89,1.81c-0.81,0.88-1.52,1.92-2.53,2.74c-1.01,0.82-2.28,1.26-3.54,1.48
						c-2.53,0.46-5.15,0.11-7.55,0.94c-1.04,0.35-1.96,0.98-2.6,1.81c-0.65,0.83-0.99,1.87-0.8,2.83l-0.26-0.21
						c19.14-0.15,36.2-0.28,48.5-0.37c6.14-0.03,11.09-0.05,14.54-0.07c1.7,0,3.02,0,3.95,0c0.43,0,0.78,0.01,1.03,0.01
						C456.02,358.09,456.14,358.09,456.14,358.1z"/>
				</g>
			</g>
		</g>
	</g>
	<g>
		<g>
			<g>
				<path class="st6" d="M241.3,441.8c0.7-5.05-6.43-9.2-11.79-9.63c-2.55-0.21-5.21,0.18-7.62-0.66
					c-5.24-1.83-7.33-8.6-12.45-10.75c-3.82-1.61-8.22-0.18-11.93,1.69c-3.71,1.87-7.37,4.21-11.51,4.48
					c-3.6,0.23-7.51-1.11-10.66,0.65c-2.35,1.31-3.58,4.02-5.74,5.61c-2.12,1.56-4.88,1.89-7.51,2.04
					c-2.63,0.14-5.35,0.17-7.74,1.26c-2.39,1.1-4.37,3.63-3.88,6.21L241.3,441.8z"/>
				<g>
					<path class="st3" d="M241.3,441.8c0,0-0.14,0.01-0.44,0.02c-0.32,0.01-0.77,0.02-1.34,0.03c-1.21,0.02-2.95,0.05-5.18,0.09
						c-4.55,0.06-11.11,0.15-19.25,0.27c-16.38,0.19-39.11,0.45-64.61,0.74l-0.22,0l-0.04-0.21c-0.29-1.48,0.24-3.05,1.17-4.24
						c0.93-1.21,2.28-2.12,3.74-2.61c3.38-1.15,6.88-0.66,10.12-1.27c1.62-0.28,3.19-0.83,4.44-1.84c1.25-1,2.18-2.36,3.29-3.57
						c0.56-0.6,1.16-1.19,1.86-1.64c0.71-0.45,1.49-0.77,2.29-0.94c1.61-0.35,3.23-0.23,4.78-0.11c1.56,0.12,3.09,0.28,4.58,0.11
						c1.49-0.15,2.93-0.58,4.3-1.13c2.75-1.1,5.22-2.65,7.81-3.83c2.58-1.17,5.32-2,8.04-1.8c1.35,0.11,2.66,0.48,3.8,1.14
						c1.14,0.65,2.1,1.5,2.96,2.39c1.72,1.79,3.07,3.74,4.66,5.32c1.55,1.6,3.44,2.73,5.43,3.01c1.98,0.31,3.91,0.14,5.71,0.27
						c1.81,0.11,3.44,0.59,4.88,1.16c1.43,0.58,2.67,1.28,3.69,2.03c1.02,0.76,1.81,1.58,2.39,2.37c0.59,0.79,0.89,1.58,1.07,2.22
						c0.14,0.65,0.19,1.16,0.14,1.51C241.32,441.64,241.3,441.8,241.3,441.8s-0.01-0.19,0-0.52c0.03-0.33-0.03-0.83-0.19-1.47
						c-0.33-1.27-1.43-2.99-3.47-4.45c-1.02-0.73-2.24-1.41-3.66-1.97c-1.42-0.55-3.03-1-4.8-1.1c-1.77-0.12-3.7,0.07-5.74-0.23
						c-2.06-0.27-4.05-1.46-5.64-3.08c-1.62-1.6-2.99-3.55-4.69-5.3c-0.85-0.87-1.79-1.69-2.88-2.31c-1.09-0.62-2.34-0.97-3.63-1.07
						c-2.6-0.18-5.28,0.62-7.82,1.78c-2.55,1.17-5.02,2.73-7.82,3.86c-1.39,0.56-2.88,1.01-4.42,1.17c-1.55,0.18-3.12,0.02-4.67-0.1
						c-1.55-0.12-3.12-0.22-4.63,0.11c-0.75,0.17-1.47,0.47-2.12,0.88c-0.65,0.42-1.22,0.97-1.76,1.55
						c-1.08,1.17-2.02,2.56-3.35,3.63c-1.33,1.08-3,1.66-4.67,1.95c-3.35,0.61-6.83,0.14-10.04,1.25c-1.39,0.47-2.63,1.31-3.5,2.44
						c-0.87,1.11-1.33,2.52-1.07,3.82l-0.26-0.21c25.44-0.21,48.11-0.4,64.44-0.53c8.16-0.05,14.74-0.09,19.3-0.11
						c2.26-0.01,4.02-0.01,5.24-0.01c0.58,0,1.04,0,1.37,0.01C241.13,441.78,241.3,441.8,241.3,441.8z"/>
				</g>
			</g>
		</g>
	</g>
	<g>
		<g>
			<g>
				<path class="st6" d="M148.82,203.31c0.58-4.24-5.4-7.72-9.89-8.09c-2.14-0.17-4.37,0.15-6.4-0.55
					c-4.4-1.53-6.16-7.22-10.45-9.03c-3.21-1.35-6.9-0.15-10.01,1.42c-3.11,1.57-6.19,3.54-9.66,3.76
					c-3.02,0.19-6.31-0.93-8.95,0.55c-1.97,1.1-3,3.37-4.82,4.71c-1.78,1.31-4.1,1.59-6.3,1.71c-2.21,0.12-4.49,0.14-6.5,1.06
					c-2.01,0.92-3.67,3.04-3.25,5.21L148.82,203.31z"/>
				<g>
					<path class="st3" d="M148.82,203.31c0.01,0.01-0.12,0.01-0.37,0.02c-0.27,0.01-0.65,0.02-1.12,0.03
						c-1.02,0.02-2.48,0.05-4.35,0.08c-3.82,0.06-9.33,0.14-16.15,0.24c-13.76,0.16-32.84,0.39-54.25,0.64l-0.22,0l-0.04-0.21
						c-0.25-1.25,0.2-2.58,0.99-3.59c0.79-1.02,1.92-1.79,3.16-2.2c2.85-0.97,5.79-0.56,8.5-1.06c1.35-0.24,2.67-0.7,3.71-1.54
						c1.05-0.84,1.83-1.98,2.76-2.99c0.47-0.51,0.98-1,1.57-1.38c0.6-0.38,1.26-0.65,1.93-0.8c1.36-0.29,2.72-0.19,4.03-0.1
						c1.31,0.1,2.59,0.23,3.83,0.09c1.25-0.13,2.45-0.48,3.6-0.94c2.3-0.92,4.37-2.22,6.55-3.21c2.17-0.98,4.47-1.68,6.77-1.51
						c1.14,0.09,2.24,0.41,3.2,0.96c0.96,0.55,1.77,1.27,2.49,2.02c1.44,1.51,2.58,3.14,3.91,4.46c1.3,1.34,2.87,2.29,4.54,2.52
						c1.66,0.26,3.28,0.12,4.79,0.23c3.05,0.24,5.48,1.45,7.2,2.69c1.72,1.27,2.64,2.77,2.9,3.86c0.12,0.55,0.15,0.98,0.11,1.27
						C148.84,203.18,148.82,203.31,148.82,203.31s-0.01-0.16-0.01-0.44c0.02-0.27-0.03-0.7-0.16-1.23c-0.28-1.06-1.2-2.5-2.91-3.73
						c-1.7-1.19-4.12-2.35-7.1-2.56c-1.49-0.1-3.1,0.06-4.82-0.19c-1.74-0.22-3.42-1.23-4.75-2.59c-1.37-1.34-2.52-2.98-3.94-4.45
						c-0.71-0.73-1.5-1.42-2.41-1.93c-0.91-0.52-1.95-0.81-3.03-0.89c-2.18-0.15-4.42,0.52-6.54,1.5c-2.13,0.98-4.21,2.29-6.56,3.24
						c-1.17,0.47-2.42,0.85-3.72,0.99c-1.31,0.15-2.62,0.01-3.92-0.08c-1.3-0.1-2.62-0.18-3.88,0.09c-1.27,0.26-2.36,1.02-3.24,2.03
						c-0.9,0.98-1.69,2.15-2.81,3.05c-1.12,0.91-2.53,1.4-3.94,1.65c-2.82,0.51-5.74,0.12-8.42,1.05c-1.16,0.39-2.19,1.09-2.92,2.03
						c-0.72,0.93-1.11,2.1-0.89,3.18l-0.26-0.21c21.35-0.17,40.36-0.32,54.08-0.43c6.85-0.03,12.37-0.06,16.21-0.08
						c1.89,0,3.37,0,4.4-0.01c0.49,0,0.87,0.01,1.15,0.01C148.68,203.3,148.81,203.3,148.82,203.31z"/>
				</g>
			</g>
		</g>
	</g>
	<g>
		<g>
			<g>
				<path class="st6" d="M421.44,92.92c0.46-3.33-4.24-6.07-7.78-6.36c-1.68-0.14-3.43,0.12-5.03-0.43
					c-3.46-1.21-4.84-5.67-8.21-7.1c-2.52-1.06-5.43-0.12-7.87,1.11c-2.45,1.23-4.86,2.78-7.59,2.95c-2.38,0.15-4.96-0.73-7.04,0.43
					c-1.55,0.87-2.36,2.65-3.79,3.7c-1.4,1.03-3.22,1.25-4.95,1.34c-1.73,0.09-3.53,0.11-5.11,0.83c-1.58,0.72-2.88,2.39-2.56,4.1
					L421.44,92.92z"/>
				<g>
					<path class="st3" d="M421.44,92.92c0.01,0.01-0.09,0.01-0.29,0.02c-0.22,0.01-0.51,0.02-0.88,0.03
						c-0.81,0.02-1.95,0.04-3.41,0.07c-3.02,0.05-7.34,0.12-12.69,0.2c-10.83,0.13-25.83,0.32-42.66,0.53l-0.22,0l-0.04-0.21
						c-0.2-1,0.16-2.07,0.79-2.87c0.63-0.81,1.53-1.42,2.51-1.75c2.26-0.77,4.57-0.44,6.69-0.84c1.06-0.18,2.08-0.54,2.89-1.2
						c0.81-0.65,1.43-1.54,2.16-2.35c0.71-0.82,1.69-1.51,2.78-1.73c1.08-0.23,2.16-0.15,3.18-0.08c1.03,0.08,2.03,0.18,3,0.07
						c0.97-0.1,1.92-0.38,2.81-0.74c1.8-0.72,3.43-1.74,5.15-2.52c1.71-0.77,3.53-1.32,5.34-1.19c0.9,0.07,1.78,0.33,2.54,0.76
						c0.76,0.43,1.4,1,1.97,1.59c1.14,1.19,2.03,2.48,3.07,3.51c1.02,1.05,2.24,1.79,3.55,1.97c1.3,0.21,2.57,0.1,3.76,0.18
						c2.41,0.19,4.32,1.15,5.67,2.13c1.36,1.01,2.08,2.19,2.27,3.05C421.59,92.45,421.41,92.95,421.44,92.92
						c-0.04-0.02,0.07-0.47-0.14-1.31c-0.22-0.83-0.95-1.96-2.29-2.92c-1.34-0.93-3.24-1.84-5.57-2c-1.16-0.07-2.44,0.05-3.79-0.15
						c-1.37-0.18-2.7-0.97-3.75-2.04c-1.08-1.06-1.98-2.34-3.1-3.49c-0.56-0.57-1.17-1.11-1.89-1.51c-0.71-0.4-1.52-0.63-2.36-0.7
						c-1.7-0.12-3.45,0.41-5.12,1.17c-1.67,0.77-3.31,1.8-5.16,2.55c-0.92,0.37-1.91,0.67-2.94,0.78c-1.04,0.12-2.07,0.01-3.09-0.06
						c-1.02-0.08-2.05-0.14-3.03,0.07c-0.99,0.21-1.83,0.79-2.52,1.58c-0.71,0.77-1.33,1.69-2.22,2.41
						c-0.89,0.73-2.01,1.11-3.12,1.31c-2.22,0.4-4.52,0.1-6.61,0.82c-0.9,0.31-1.7,0.85-2.27,1.58c-0.56,0.72-0.86,1.62-0.69,2.45
						l-0.26-0.21c16.77-0.12,31.7-0.23,42.49-0.31c5.38-0.02,9.72-0.04,12.75-0.05c1.48,0,2.64,0,3.47,0c0.38,0,0.68,0.01,0.91,0.01
						C421.32,92.91,421.43,92.91,421.44,92.92z"/>
				</g>
			</g>
		</g>
	</g>
</g>
<g id="Character_1_">
	<g>
		<g>
			<g>
				<g>
					<g>
						<g>
							<g>
								<g>
									<g>
										<g>
											<g>
												<g>
													<g>
														<g>
															<g>
																<path class="st7" d="M247.09,268.69l-0.72,16.45c0,0,16.47,6.25,16.64,9.31l-31.94-0.25l0.07-25.67L247.09,268.69z"
																	/>
															</g>
														</g>
													</g>
												</g>
											</g>
										</g>
									</g>
								</g>
							</g>
						</g>
					</g>
					<g>
						<g>
							<g>
								<g>
									<g>
										<g>
											<g>
												<g>
													<g>
														<g>
															<g>
																<g>
																	<path class="st4" d="M236.51,283.67c-0.62,0.16-1.05,0.86-0.91,1.48c0.14,0.63,0.84,1.07,1.46,0.92
																		c0.62-0.15,1.17-0.97,0.96-1.57c-0.21-0.61-1.06-1.08-1.62-0.79"/>
																</g>
															</g>
														</g>
													</g>
												</g>
											</g>
										</g>
									</g>
								</g>
							</g>
						</g>
					</g>
					<g class="st8">
						<g>
							<g>
								<g>
									<g>
										<g>
											<g>
												<g>
													<g>
														<g>
															<g>
																<path class="st6" d="M231.07,294.19l0.11-2.59l30.58,1.21c0,0,1.42,0.63,1.25,1.63L231.07,294.19z"/>
															</g>
														</g>
													</g>
												</g>
											</g>
										</g>
									</g>
								</g>
							</g>
						</g>
					</g>
					<g>
						<g>
							<g>
								<g>
									<g>
										<g>
											<g>
												<g>
													<g>
														<g>
															<g>
																<g>
																	<path class="st3" d="M246.89,284.97c-0.01,0.16-0.79,0.22-1.56,0.72c-0.78,0.48-1.19,1.15-1.33,1.08
																		c-0.14-0.03,0.1-0.96,1.04-1.55C245.98,284.64,246.92,284.83,246.89,284.97z"/>
																</g>
															</g>
														</g>
													</g>
												</g>
											</g>
										</g>
									</g>
								</g>
							</g>
						</g>
					</g>
					<g>
						<g>
							<g>
								<g>
									<g>
										<g>
											<g>
												<g>
													<g>
														<g>
															<g>
																<g>
																	<path class="st3" d="M250.23,286.39c0.03,0.15-0.64,0.41-1.18,1.07c-0.55,0.64-0.69,1.35-0.85,1.34
																		c-0.15,0.02-0.25-0.89,0.43-1.69C249.31,286.3,250.23,286.24,250.23,286.39z"/>
																</g>
															</g>
														</g>
													</g>
												</g>
											</g>
										</g>
									</g>
								</g>
							</g>
						</g>
					</g>
					<g>
						<g>
							<g>
								<g>
									<g>
										<g>
											<g>
												<g>
													<g>
														<g>
															<g>
																<g>
																	<path class="st3" d="M252.1,290.41c-0.14,0.03-0.35-0.75,0.05-1.6c0.4-0.85,1.14-1.19,1.2-1.05
																		c0.09,0.13-0.39,0.58-0.71,1.29C252.3,289.74,252.25,290.4,252.1,290.41z"/>
																</g>
															</g>
														</g>
													</g>
												</g>
											</g>
										</g>
									</g>
								</g>
							</g>
						</g>
					</g>
					<g>
						<g>
							<g>
								<g>
									<g>
										<g>
											<g>
												<g>
													<g>
														<g>
															<g>
																<g>
																	<path class="st3" d="M246.64,281.21c-0.07,0.14-0.78-0.08-1.66-0.03c-0.88,0.04-1.57,0.33-1.65,0.19
																		c-0.09-0.11,0.58-0.69,1.62-0.73C245.99,280.58,246.71,281.09,246.64,281.21z"/>
																</g>
															</g>
														</g>
													</g>
												</g>
											</g>
										</g>
									</g>
								</g>
							</g>
						</g>
					</g>
				</g>
			</g>
		</g>
		<g>
			<g>
				<g>
					<g>
						<g>
							<g>
								<g>
									<g>
										<g>
											<g>
												<g>
													<g>
														<g>
															<g>
																<path class="st7" d="M296.71,268.69l-0.72,16.45c0,0,16.47,6.25,16.64,9.31l-31.94-0.25l0.07-25.67L296.71,268.69z"
																	/>
															</g>
														</g>
													</g>
												</g>
											</g>
										</g>
									</g>
								</g>
							</g>
						</g>
					</g>
					<g>
						<g>
							<g>
								<g>
									<g>
										<g>
											<g>
												<g>
													<g>
														<g>
															<g>
																<g>
																	<path class="st4" d="M286.13,283.67c-0.62,0.16-1.05,0.86-0.91,1.48c0.14,0.63,0.84,1.07,1.46,0.92
																		c0.62-0.15,1.17-0.97,0.96-1.57c-0.21-0.61-1.06-1.08-1.62-0.79"/>
																</g>
															</g>
														</g>
													</g>
												</g>
											</g>
										</g>
									</g>
								</g>
							</g>
						</g>
					</g>
					<g class="st8">
						<g>
							<g>
								<g>
									<g>
										<g>
											<g>
												<g>
													<g>
														<g>
															<g>
																<path class="st6" d="M280.69,294.19l0.11-2.59l30.58,1.21c0,0,1.42,0.63,1.25,1.63L280.69,294.19z"/>
															</g>
														</g>
													</g>
												</g>
											</g>
										</g>
									</g>
								</g>
							</g>
						</g>
					</g>
					<g>
						<g>
							<g>
								<g>
									<g>
										<g>
											<g>
												<g>
													<g>
														<g>
															<g>
																<g>
																	<path class="st3" d="M296.51,284.97c-0.01,0.16-0.79,0.22-1.56,0.72c-0.78,0.48-1.19,1.15-1.33,1.08
																		c-0.14-0.03,0.1-0.96,1.04-1.55C295.6,284.64,296.55,284.83,296.51,284.97z"/>
																</g>
															</g>
														</g>
													</g>
												</g>
											</g>
										</g>
									</g>
								</g>
							</g>
						</g>
					</g>
					<g>
						<g>
							<g>
								<g>
									<g>
										<g>
											<g>
												<g>
													<g>
														<g>
															<g>
																<g>
																	<path class="st3" d="M299.85,286.39c0.03,0.15-0.64,0.41-1.18,1.07c-0.55,0.64-0.69,1.35-0.85,1.34
																		c-0.15,0.02-0.25-0.89,0.43-1.69C298.93,286.3,299.85,286.24,299.85,286.39z"/>
																</g>
															</g>
														</g>
													</g>
												</g>
											</g>
										</g>
									</g>
								</g>
							</g>
						</g>
					</g>
					<g>
						<g>
							<g>
								<g>
									<g>
										<g>
											<g>
												<g>
													<g>
														<g>
															<g>
																<g>
																	<path class="st3" d="M301.72,290.41c-0.14,0.03-0.35-0.75,0.05-1.6c0.4-0.85,1.14-1.19,1.2-1.05
																		c0.09,0.13-0.39,0.58-0.71,1.29C301.93,289.74,301.88,290.4,301.72,290.41z"/>
																</g>
															</g>
														</g>
													</g>
												</g>
											</g>
										</g>
									</g>
								</g>
							</g>
						</g>
					</g>
					<g>
						<g>
							<g>
								<g>
									<g>
										<g>
											<g>
												<g>
													<g>
														<g>
															<g>
																<g>
																	<path class="st3" d="M296.26,281.21c-0.07,0.14-0.78-0.08-1.66-0.03c-0.88,0.04-1.57,0.33-1.65,0.19
																		c-0.09-0.11,0.58-0.69,1.62-0.73C295.61,280.58,296.34,281.09,296.26,281.21z"/>
																</g>
															</g>
														</g>
													</g>
												</g>
											</g>
										</g>
									</g>
								</g>
							</g>
						</g>
					</g>
				</g>
			</g>
		</g>
		<g>
			<g>
				<g>
					<g>
						<g>
							<g>
								<g>
									<g>
										<g>
											<g>
												<g>
													<g>
														<g>
															<g>
																<path class="st3" d="M231.22,52.74c-1.12-3.07-2.24-6.17-2.81-9.4c-0.58-3.22-0.6-6.6,0.43-9.71
																	c0.16-0.47,1.52-3.64,2.01-3.61c0.35,0.02-0.45,2.96-0.26,3.26c1.81,2.86,2.4,6.36,2.25,9.74
																	C232.69,46.41,232.1,49.47,231.22,52.74"/>
															</g>
														</g>
													</g>
												</g>
											</g>
										</g>
									</g>
								</g>
								<g>
									<g>
										<g>
											<g>
												<g>
													<g>
														<g>
															<g>
																<g>
																	<path class="st9" d="M232.27,70.17l-1.2-29.71c-0.56-8.19,3.11-15.54,11.31-15.88l0.89,0.02
																		c7.57,0.13,13.78,6.06,14.26,13.62c0.45,7.14,0.86,15.06,0.75,18.89c-0.23,7.88-8.13,8.96-8.13,8.96
																		c-0.02,0,0.34,5.71,0.4,8.02c0,0-0.83,0.61-8.17,0.87C235.03,75.22,232.27,70.17,232.27,70.17z"/>
																</g>
															</g>
														</g>
													</g>
												</g>
											</g>
										</g>
									</g>
								</g>
								<g>
									<g>
										<g>
											<g>
												<g>
													<g>
														<g>
															<g>
																<g>
																	<g>
																		<path class="st10" d="M250.15,66.07c0,0-4.97,0.2-10.2-3.21c0,0,2.4,5.77,10.27,5.2L250.15,66.07z"/>
																	</g>
																</g>
															</g>
														</g>
													</g>
												</g>
											</g>
										</g>
									</g>
								</g>
								<g>
									<g>
										<g>
											<g>
												<g>
													<g>
														<g>
															<g>
																<g>
																	<g>
																		<g>
																			<g>
																				<g>
																					<g>
																						<g>
																							<g>
																								<path class="st3" d="M254.83,45.37c0.01,0.59-0.48,1.09-1.1,1.12c-0.62,0.02-1.13-0.44-1.14-1.03
																									c-0.01-0.59,0.48-1.09,1.1-1.12C254.31,44.31,254.82,44.78,254.83,45.37z"/>
																							</g>
																						</g>
																					</g>
																				</g>
																			</g>
																		</g>
																	</g>
																</g>
															</g>
														</g>
													</g>
												</g>
											</g>
										</g>
									</g>
								</g>
								<g>
									<g>
										<g>
											<g>
												<g>
													<g>
														<g>
															<g>
																<g>
																	<g>
																		<g>
																			<g>
																				<g>
																					<g>
																						<g>
																							<g>
																								<g>
																									<path class="st3" d="M255.55,42.56c-0.14,0.14-0.98-0.5-2.19-0.52c-1.21-0.04-2.11,0.57-2.24,0.42
																										c-0.06-0.07,0.08-0.33,0.47-0.6c0.39-0.27,1.04-0.54,1.79-0.52c0.75,0.02,1.38,0.31,1.74,0.6
																										C255.5,42.23,255.62,42.5,255.55,42.56z"/>
																								</g>
																							</g>
																						</g>
																					</g>
																				</g>
																			</g>
																		</g>
																	</g>
																</g>
															</g>
														</g>
													</g>
												</g>
											</g>
										</g>
									</g>
								</g>
								<g>
									<g>
										<g>
											<g>
												<g>
													<g>
														<g>
															<g>
																<g>
																	<g>
																		<g>
																			<g>
																				<g>
																					<g>
																						<g>
																							<g>
																								<g>
																									<path class="st3" d="M244.48,45.56c-0.14,0.14-0.98-0.5-2.19-0.52c-1.21-0.04-2.11,0.57-2.24,0.42
																										c-0.06-0.07,0.08-0.33,0.48-0.6c0.39-0.27,1.04-0.54,1.79-0.52c0.75,0.02,1.38,0.31,1.74,0.6
																										C244.43,45.23,244.55,45.49,244.48,45.56z"/>
																								</g>
																							</g>
																						</g>
																					</g>
																				</g>
																			</g>
																		</g>
																	</g>
																</g>
															</g>
														</g>
													</g>
												</g>
											</g>
										</g>
									</g>
								</g>
								<g>
									<g>
										<g>
											<g>
												<g>
													<g>
														<g>
															<g>
																<g>
																	<g>
																		<g>
																			<g>
																				<g>
																					<g>
																						<g>
																							<g>
																								<path class="st3" d="M248.17,52.1c0-0.07,0.75-0.19,1.97-0.32c0.31-0.03,0.6-0.08,0.66-0.29
																									c0.08-0.22-0.05-0.56-0.19-0.92c-0.28-0.75-0.57-1.54-0.87-2.37c-1.21-3.37-2.08-6.14-1.95-6.19
																									c0.14-0.05,1.23,2.65,2.44,6.02c0.29,0.83,0.57,1.62,0.83,2.38c0.11,0.35,0.3,0.76,0.14,1.22
																									c-0.09,0.23-0.32,0.39-0.52,0.44c-0.2,0.06-0.37,0.06-0.53,0.06C248.93,52.18,248.17,52.17,248.17,52.1z"/>
																							</g>
																						</g>
																					</g>
																				</g>
																			</g>
																		</g>
																	</g>
																</g>
															</g>
														</g>
													</g>
												</g>
											</g>
										</g>
									</g>
								</g>
								<g>
									<g>
										<g>
											<g>
												<g>
													<g>
														<g>
															<g>
																<g>
																	<g>
																		<g>
																			<g>
																				<path class="st3" d="M244.54,42.33c-0.15,0.32-1.34,0.05-2.77,0.1c-1.43,0.01-2.61,0.33-2.77,0.01
																					c-0.07-0.15,0.16-0.44,0.65-0.71c0.49-0.28,1.24-0.51,2.1-0.53c0.86-0.02,1.62,0.19,2.12,0.44
																					C244.37,41.9,244.61,42.18,244.54,42.33z"/>
																			</g>
																		</g>
																	</g>
																</g>
															</g>
														</g>
													</g>
												</g>
											</g>
										</g>
									</g>
								</g>
								<g>
									<g>
										<g>
											<g>
												<g>
													<g>
														<g>
															<g>
																<g>
																	<g>
																		<g>
																			<g>
																				<path class="st3" d="M256.02,38.03c-0.18,0.32-1.19,0.25-2.33,0.48c-1.15,0.2-2.06,0.64-2.35,0.4
																					c-0.13-0.12-0.03-0.42,0.33-0.76c0.36-0.34,1.01-0.7,1.8-0.85c0.79-0.15,1.52-0.05,1.98,0.14
																					C255.91,37.63,256.1,37.88,256.02,38.03z"/>
																			</g>
																		</g>
																	</g>
																</g>
															</g>
														</g>
													</g>
												</g>
											</g>
										</g>
									</g>
								</g>
								<g>
									<g>
										<g>
											<g>
												<g>
													<g>
														<g>
															<g>
																<path class="st9" d="M231.62,46.25c-0.13-0.06-5.38-1.7-5.31,3.69c0.08,5.39,5.47,4.2,5.48,4.04
																	C231.8,53.83,231.62,46.25,231.62,46.25z"/>
															</g>
														</g>
													</g>
												</g>
											</g>
										</g>
									</g>
								</g>
								<g>
									<g>
										<g>
											<g>
												<g>
													<g>
														<g>
															<g>
																<g>
																	<path class="st10" d="M230.03,51.99c-0.02-0.02-0.09,0.07-0.25,0.14c-0.15,0.07-0.42,0.13-0.7,0.02
																		c-0.57-0.2-1.06-1.1-1.1-2.07c-0.02-0.49,0.08-0.96,0.24-1.35c0.16-0.4,0.41-0.68,0.7-0.73
																		c0.28-0.07,0.49,0.1,0.56,0.25c0.07,0.15,0.04,0.26,0.07,0.27c0.02,0.01,0.11-0.09,0.07-0.31
																		c-0.02-0.11-0.09-0.23-0.22-0.33c-0.13-0.1-0.32-0.15-0.52-0.13c-0.42,0.03-0.78,0.42-0.97,0.85
																		c-0.21,0.43-0.33,0.96-0.3,1.51c0.05,1.09,0.62,2.09,1.4,2.31c0.38,0.09,0.7-0.03,0.86-0.16
																		C230.02,52.12,230.04,52,230.03,51.99z"/>
																</g>
															</g>
														</g>
													</g>
												</g>
											</g>
										</g>
									</g>
								</g>
								<g>
									<g>
										<g>
											<g>
												<g>
													<g>
														<g>
															<g>
																<path class="st3" d="M253.85,29.51c0.86-0.5-1.82-3.26-3.99-4.19c-3.27-1.39-8.24-2.18-11.2-1.27
																	c-3.57,1.1-6.52,2.96-8.24,6.28c-1.73,3.31-2.32,7.14-2.13,10.87c0.06,1.14,0.2,2.32,0.84,3.27
																	c0.78,1.17,2.24,1.89,2.22,3.53c-0.01,0.6,0.18,1.2,0.6,1.63c1.01,1.03,2.19,0.01,2.72-0.99
																	c1.13-2.14,1.21-4.66,1.26-7.08c0.03-1.72,0.06-3.48-0.46-5.12c-0.28-0.89-0.73-1.73-0.96-2.64
																	c-0.23-0.91-0.23-1.94,0.32-2.7c0.09-0.12,0.24-0.28,0.43-0.45c1.49-1.37,3.62-1.82,5.55-1.19
																	c3.06,1,8.28,2.48,9.61,1.42c1.91-1.53,2.36-2.5,2.36-2.5L253.85,29.51z"/>
															</g>
														</g>
													</g>
												</g>
											</g>
										</g>
									</g>
								</g>
							</g>
						</g>
					</g>
				</g>
			</g>
			<g>
				<g>
					<path class="st3" d="M248.95,55.37c0.02,0.09-0.28,0.26-0.82,0.33c-0.54,0.07-1.31-0.01-2.07-0.37
						c-0.76-0.36-1.31-0.91-1.59-1.37c-0.29-0.46-0.34-0.8-0.26-0.84c0.18-0.09,0.83,0.97,2.15,1.57
						C247.68,55.34,248.91,55.17,248.95,55.37z"/>
				</g>
			</g>
		</g>
		<g>
			<path class="st9" d="M323.96,42.26c0,0-0.21-1.26-0.83-1.26c-0.62,0-1.56,0.34-1.97,1.26C320.74,43.18,323.96,42.26,323.96,42.26
				z"/>
			<path class="st9" d="M308.1,62.31l0.62-9.93l1.97-10.23c0,0,1.56-1.66,2.39-1.28c0.83,0.39,0.52,1.75,0.52,1.75
				s2.18-2.35,3.01-1.81c0.83,0.54,0.52,1.81,0.52,1.81s1.97-2.61,2.9-1.89c0.93,0.72,0,1.89,0,1.89s1.24,11.46,0.61,15.55
				c-0.62,4.09-4.11,5.61-4.11,5.61l-1.66,6.44l-8.13-4.42L308.1,62.31z"/>
			<g>
				<polygon class="st5" points="313.07,49.31 268.93,48.82 268.93,45.29 313.07,44.05 				"/>
				<path class="st5" d="M359.68,52.81l-62.37-2.63c-0.78-2.12-0.81-4.41-0.05-6.89l61.98-2.73
					C362.1,43.52,362.13,49.76,359.68,52.81z"/>
				<path class="st4" d="M359.08,41.12c0,0-1.88,1.76-1.81,5.59c0.07,3.83,1.96,5.44,1.96,5.44s2.05-2.16,1.75-6
					C360.69,42.4,359.08,41.12,359.08,41.12z"/>
				<g>
					<path class="st3" d="M356.58,52.81c-0.05,0.04-0.59-0.47-1.21-1.51c-0.61-1.03-1.26-2.64-1.23-4.53
						c0.03-1.84,0.5-3.5,1.09-4.56c0.59-1.07,1.18-1.56,1.21-1.52c0.07,0.06-0.41,0.62-0.88,1.68c-0.49,1.05-0.87,2.63-0.9,4.4
						c-0.03,1.76,0.52,3.31,1.03,4.34C356.21,52.17,356.65,52.76,356.58,52.81z"/>
				</g>
				<g>
					<path class="st3" d="M359.36,40.69c0.07,0.05-0.39,0.64-0.89,1.7c-0.5,1.05-0.99,2.63-0.95,4.4c0.03,1.78,0.58,3.33,1.12,4.36
						c0.5,1.08,1.13,1.45,1.11,1.51c-0.01,0.03-0.21-0.01-0.5-0.21c-0.29-0.2-0.62-0.59-0.93-1.11c-0.64-1.03-1.29-2.65-1.32-4.53
						c-0.04-1.88,0.54-3.53,1.14-4.58C358.75,41.16,359.32,40.65,359.36,40.69z"/>
				</g>
				<path class="st6" d="M360.17,43.89c-0.08-0.2-0.18-0.4-0.33-0.55c-0.15-0.15-0.38-0.24-0.59-0.2c-0.21,0.04-0.37,0.22-0.43,0.43
					s-0.02,0.43,0.07,0.62c0.23,0.45,0.6,0.87,0.58,1.32c-0.01,0.45-0.13,0.9-0.09,1.35c0.01,0.16,0.05,0.33,0.15,0.47
					c0.1,0.13,0.26,0.23,0.42,0.21c0.27-0.04,0.4-0.34,0.46-0.6C360.65,45.93,360.56,44.85,360.17,43.89z"/>
				<g>
					<path class="st3" d="M297.3,50.4c-0.11,0.07-0.9-1.49-0.85-3.58c0.03-2.09,0.86-3.62,0.97-3.55c0.15,0.06-0.43,1.59-0.45,3.56
						C296.93,48.8,297.45,50.35,297.3,50.4z"/>
				</g>
				<g>
					<path class="st5" d="M268.84,49.66L268.84,49.66c-0.37,0-0.67-0.3-0.67-0.67v-3.74c0-0.37,0.3-0.67,0.67-0.67l0,0
						c0.37,0,0.67,0.3,0.67,0.67v3.74C269.52,49.36,269.21,49.66,268.84,49.66z"/>
					<g>
						<path class="st3" d="M268.84,49.66c-0.01-0.04,0.18-0.05,0.36-0.23c0.09-0.09,0.17-0.23,0.16-0.4
							c-0.01-0.23-0.02-0.47-0.04-0.7c-0.02-0.6-0.04-1.22-0.06-1.86c0-0.36-0.01-0.73-0.02-1.1c0.03-0.33-0.16-0.52-0.42-0.53
							c-0.26,0.01-0.45,0.2-0.42,0.53c-0.01,0.37-0.01,0.74-0.02,1.1c-0.02,0.64-0.04,1.26-0.06,1.86c-0.01,0.24-0.02,0.47-0.04,0.7
							c0,0.17,0.08,0.31,0.16,0.4C268.66,49.61,268.85,49.62,268.84,49.66c0.01,0.02-0.19,0.11-0.49-0.07
							c-0.14-0.09-0.29-0.27-0.33-0.53c-0.01-0.24-0.03-0.48-0.04-0.73c-0.02-0.6-0.04-1.22-0.06-1.86c0-0.36-0.01-0.73-0.02-1.1
							c-0.02-0.17,0.03-0.52,0.21-0.71c0.17-0.21,0.44-0.35,0.72-0.35c0.28,0,0.55,0.13,0.72,0.35c0.18,0.19,0.22,0.54,0.21,0.71
							c-0.01,0.37-0.01,0.74-0.02,1.1c-0.02,0.64-0.04,1.26-0.06,1.86c-0.01,0.25-0.03,0.49-0.04,0.73
							c-0.04,0.26-0.19,0.44-0.33,0.53C269.03,49.77,268.83,49.68,268.84,49.66z"/>
					</g>
				</g>
			</g>
			<path class="st9" d="M276.51,57.06c0,0-0.94-11.59-0.66-12.61c0.32-1.16,3.48-4.6,4.6-4.72c1.12-0.12,1.24,1.12,1.24,1.12
				s1.57-1.08,3.11-1.13c1.63-0.05,1.84,1.39,1.84,1.39s0.91-0.67,2.47-0.39c0.66,0.12,1.41,1.29,1.41,1.29s1.64-0.71,2.42,0.02
				c0.98,0.92,0.97,2.56,0.97,2.56c-1.52-0.11-2.9,0.92-2.9,0.92s-0.38,5.02-1,7.51c-0.62,2.48-3.08,4.54-3.9,5.82l-0.65,8.57
				l-10.55-5.59L276.51,57.06z"/>
			<g>
				<path class="st10" d="M278.88,45.32c-0.13,0.02-0.18-1.52,0.87-3.01c1.03-1.5,2.5-1.98,2.53-1.85c0.07,0.14-1.16,0.78-2.1,2.15
					C279.22,43.96,279.04,45.34,278.88,45.32z"/>
			</g>
			<g>
				<path class="st10" d="M284.04,45.12c-0.12,0.05-0.42-1.33,0.44-2.75c0.42-0.69,1.05-1.15,1.55-1.32
					c0.5-0.18,0.83-0.14,0.84-0.08c0.04,0.14-1.21,0.4-1.94,1.67C284.16,43.87,284.2,45.13,284.04,45.12z"/>
			</g>
			<g>
				<path class="st10" d="M287.82,44.74c-0.14-0.02,0.09-1.13,1.08-2.01c0.98-0.9,2.1-1.02,2.11-0.88c0.04,0.15-0.9,0.47-1.76,1.27
					C288.37,43.89,287.96,44.79,287.82,44.74z"/>
			</g>
			<g>
				<path class="st9" d="M314.8,59.91c1.76-2.07,0.42-7.64,0.42-7.64s2.49-0.83,3.11-3.32c0.62-2.49-0.62-2.9-0.62-2.9
					c-0.41,0.21-4.25,2.7-6.22,3.73c-1.97,1.04-2.59,11.6-2.59,11.6"/>
				<g>
					<path class="st10" d="M308.89,61.39c-0.04,0-0.04-0.5,0-1.39c0.05-0.89,0.14-2.18,0.33-3.76c0.23-1.58,0.43-3.48,1.23-5.49
						c0.12-0.25,0.24-0.5,0.42-0.74c0.16-0.24,0.49-0.47,0.71-0.57c0.48-0.26,0.96-0.54,1.45-0.84c0.97-0.6,1.98-1.22,3.01-1.85
						c0.52-0.32,0.99-0.63,1.54-0.94l0.1-0.06l0.1,0.04c0.48,0.21,0.69,0.59,0.83,0.97c0.13,0.39,0.15,0.78,0.13,1.14
						c-0.05,0.73-0.22,1.44-0.55,2.07c-0.67,1.26-1.78,2.07-2.91,2.49l0.14-0.26c0.49,2.35,0.54,4.36,0.28,5.73
						c-0.12,0.69-0.36,1.2-0.54,1.52c-0.22,0.31-0.36,0.45-0.37,0.43c-0.02-0.02,0.08-0.19,0.26-0.5c0.14-0.33,0.33-0.82,0.41-1.5
						c0.18-1.33,0.07-3.31-0.46-5.59l-0.04-0.18l0.18-0.07c1.01-0.4,2.05-1.18,2.61-2.3c0.29-0.55,0.43-1.21,0.48-1.87
						c0.06-0.63-0.15-1.38-0.62-1.6l0.2-0.01c-0.47,0.27-0.99,0.6-1.49,0.92c-1.03,0.64-2.04,1.26-3.03,1.85
						c-0.49,0.29-0.98,0.57-1.47,0.83c-0.28,0.14-0.4,0.23-0.56,0.43c-0.15,0.18-0.26,0.42-0.37,0.64c-0.79,1.88-1.04,3.8-1.31,5.35
						c-0.24,1.57-0.39,2.84-0.49,3.72C308.99,60.9,308.93,61.39,308.89,61.39z"/>
				</g>
			</g>
		</g>
		<g>
			<path class="st3" d="M232.3,152.59c0,0,1.23,50.33,0,56.47c-1.23,6.14-3.27,31.51-3.27,50.33s0.79,23.11,0.79,23.11h18.27
				c0,0,1.26-35.79,6.9-56.49c5.24-19.23,11.27-48.46,11.27-61.15c0-12.68,0-17.19,0-17.19h-32.33L232.3,152.59z"/>
			<path class="st3" d="M276.5,147.68c0,0,19.17,53.19,20.4,68.74c1.23,15.55,1.29,66.08,1.29,66.08h-18.92l-2.53-61.03
				l-14.56-39.54v-34.25H276.5z"/>
			<g>
				<path class="st7" d="M266.27,176.33c0.04,0.01-0.05,0.52-0.23,1.45c-0.2,1.02-0.45,2.34-0.76,3.92
					c-0.65,3.41-1.52,7.93-2.48,12.94c-0.98,5.05-1.9,9.62-2.63,12.92c-0.37,1.65-0.68,2.98-0.92,3.89c-0.25,0.91-0.4,1.41-0.43,1.4
					c-0.03-0.01,0.05-0.52,0.23-1.45c0.2-1.02,0.45-2.34,0.76-3.92c0.65-3.41,1.52-7.94,2.48-12.94c0.98-5.05,1.9-9.62,2.63-12.92
					c0.37-1.65,0.68-2.98,0.92-3.89C266.08,176.82,266.23,176.32,266.27,176.33z"/>
			</g>
		</g>
		<g>
			<path class="st7" d="M283.76,171.17h4.05c0,0,0.93-14.03-1.41-23.49c-2.34-9.46-14.3-50.64-14.3-50.64l-13.24-21.88l-7.1-3.19
				l23.32,78.19L283.76,171.17z"/>
			<path class="st11" d="M269.01,103.24c0,0,12.26,36.33,14.29,45.85c2.03,9.52,3.08,22.08,3.08,22.08h-2.63l-9.63-25.36
				c0,0-10.03-40.33-9.57-40.23C265.03,105.68,269.01,103.24,269.01,103.24z"/>
			<path class="st4" d="M229.5,71.12l1.1-6.96l19.55,8.78v-4.26l8.64,14.41l19.01,54.04c0.62,1.66,1.35,7.21,0.25,8.6l-1.55,1.95
				l-20.6,2.66l-19.54-70.54L229.5,71.12z"/>
			<path class="st11" d="M232.74,176.33c0,0,26.16,2.94,31.52,0.8c5.36-2.13,5.62-7.6,5.62-7.6s2.62-18.58,2.44-22.67
				c-0.21-4.65-1.7-11.28-1.7-11.28l-37.93,37.47L232.74,176.33z"/>
			<path class="st5" d="M252.44,79.19c0,0,8.94,30.44,8.87,30.66c-0.08,0.23,9.92,31.17,9.92,31.17l1.96-9.3l-13.9-46.4l-5.59-6.85
				L252.44,79.19z"/>
			<path class="st7" d="M223.69,73.96c-9.17,5.59-9.65,14.26-5.57,24.2c0.68,1.65,1.98,4.48,2.88,6.41
				c3.95,8.39,12.14,22.08,12.14,25.28c0,7.53-6.75,42.51-6.75,42.51s36.57,4.44,39.87,0.99c3.3-3.45,5.84-25,4.78-34.64
				c-1.17-10.64-6.65-28.63-8.87-35.29c-1.34-4.01-5.75-13.99-11.01-20.53c-3.94-4.89-8.62-9.13-13.88-12.57l-7.78-5.1l-1.61,5.4
				C227.9,70.61,225.76,72.71,223.69,73.96z"/>
			<path class="st7" d="M259.29,76.39c0.75-0.04,34.18,10.92,32.25,10.12l0.89-0.93l12.05-18.16l10.97,6.51
				c0,0-10.89,20.8-12.69,24.06c-1.61,2.92-4.72,5.26-8.87,5.25c-2.45,0-23.39-3.5-23.39-3.5L259.29,76.39z"/>
			<polygon class="st4" points="272.74,63.89 275.33,59.31 286.97,65.94 285.16,70.98 			"/>
			<path class="st11" d="M221.53,98.51c0,0,22.5,12.53,29.62,14.18c7.13,1.65,15.12,3.94,15.12,3.94l-3.21-10.22l-19.53-11.87
				L221.53,98.51z"/>
			<g>
				<path class="st7" d="M221.53,98.51c-0.28-0.21,33.72,11.88,40.64,9.7c6.93-2.18,9.17-9.05,11.65-13.27
					c4.53-7.73,12.56-23.1,12.56-23.1l-14.42-8.23l-14.32,23.97c0,0-25.31-10.43-27.64-11.11s-9.54-1.61-13.06,6.81
					C213.03,92.6,221.53,98.51,221.53,98.51z"/>
				<g>
					<path class="st3" d="M221.53,98.51c0.01,0.01-0.1-0.05-0.25-0.17c-0.16-0.12-0.4-0.3-0.7-0.56c-0.59-0.52-1.45-1.33-2.35-2.57
						c-0.89-1.23-1.83-2.92-2.24-5.1c-0.14-0.54-0.13-1.11-0.19-1.7c-0.03-0.59,0.05-1.2,0.08-1.83c0.14-0.61,0.22-1.27,0.42-1.9
						c0.24-0.62,0.39-1.31,0.72-1.93c0.55-1.3,1.37-2.57,2.42-3.72c1.06-1.14,2.46-2.09,4.08-2.63c1.61-0.55,3.43-0.68,5.23-0.4
						c0.91,0.12,1.81,0.42,2.67,0.76c0.87,0.33,1.75,0.67,2.65,1.02c7.14,2.81,15.09,6.06,23.67,9.58l-0.3,0.1
						c4.43-7.42,9.27-15.53,14.31-23.98l0.13-0.22l0.22,0.13c1.65,0.94,3.41,1.94,5.18,2.96c3.16,1.81,6.29,3.59,9.23,5.27
						l0.22,0.12l-0.12,0.22c-2.83,5.4-5.62,10.62-8.37,15.62c-1.37,2.5-2.73,4.94-4.11,7.3c-1.36,2.34-2.44,4.81-3.89,7
						c-1.41,2.21-3.22,4.13-5.39,5.38c-1.1,0.59-2.2,1.12-3.44,1.33c-1.22,0.16-2.4,0.08-3.55-0.02c-4.6-0.51-8.74-1.59-12.51-2.56
						c-7.51-2.02-13.45-3.97-17.54-5.32C223.74,99.32,221.53,98.51,221.53,98.51c0-0.02,0.15,0.02,0.42,0.1
						c0.3,0.09,0.7,0.22,1.23,0.38c1.1,0.35,2.68,0.86,4.71,1.51c4.1,1.29,10.06,3.2,17.57,5.17c3.76,0.95,7.91,2,12.46,2.49
						c1.13,0.1,2.3,0.17,3.45,0.01c1.11-0.19,2.23-0.73,3.28-1.29c2.09-1.22,3.84-3.08,5.22-5.26c1.42-2.16,2.48-4.61,3.86-6.99
						c1.37-2.36,2.72-4.8,4.09-7.3c2.73-5,5.52-10.23,8.34-15.62l0.1,0.34c-2.95-1.68-6.07-3.46-9.24-5.27
						c-1.78-1.01-3.54-2.02-5.18-2.96l0.35-0.09c-5.05,8.44-9.9,16.54-14.34,23.96l-0.11,0.18l-0.19-0.08
						c-8.57-3.53-16.51-6.8-23.63-9.64c-0.89-0.35-1.77-0.69-2.64-1.03c-0.87-0.35-1.71-0.63-2.59-0.75
						c-1.75-0.27-3.5-0.16-5.06,0.36c-1.56,0.51-2.91,1.41-3.95,2.51c-1.03,1.11-1.84,2.34-2.39,3.61
						c-0.33,0.61-0.48,1.28-0.72,1.89c-0.2,0.62-0.28,1.26-0.43,1.86c-0.03,0.62-0.12,1.21-0.09,1.79c0.05,0.58,0.03,1.14,0.17,1.67
						c0.38,2.14,1.28,3.81,2.14,5.05c0.87,1.24,1.7,2.07,2.27,2.6c0.29,0.27,0.52,0.46,0.67,0.59
						C221.4,98.4,221.47,98.46,221.53,98.51z"/>
				</g>
			</g>
			<g>
				<polygon class="st7" points="237.87,149.74 241.02,143.36 263.06,143.75 260.61,150.35 				"/>
				<g>
					<path class="st3" d="M237.87,149.74c0.01-0.01,0.18-0.01,0.48-0.01c0.35,0,0.78,0,1.31,0.01c1.19,0.01,2.81,0.03,4.8,0.06
						c4.07,0.06,9.7,0.14,16.16,0.3l-0.24,0.17c0.74-2.01,1.53-4.13,2.33-6.3c0.04-0.1,0.07-0.2,0.11-0.3l0.24,0.35
						c-8.87-0.16-16.79-0.33-22.04-0.48l0.15-0.09c-0.99,1.92-1.8,3.46-2.38,4.59c-0.27,0.51-0.49,0.92-0.66,1.26
						C237.97,149.58,237.89,149.73,237.87,149.74c-0.01,0.01,0.05-0.13,0.17-0.41c0.15-0.33,0.34-0.74,0.57-1.25
						c0.55-1.18,1.31-2.79,2.25-4.79l0.04-0.09l0.11,0c5.24,0.04,13.17,0.14,22.04,0.3l0.37,0.01l-0.13,0.34
						c-0.04,0.1-0.07,0.2-0.11,0.3c-0.81,2.18-1.6,4.29-2.35,6.3l-0.06,0.17l-0.18-0.01c-6.59-0.19-12.32-0.41-16.37-0.57
						c-1.96-0.08-3.55-0.15-4.72-0.2c-0.5-0.02-0.91-0.04-1.24-0.06C238,149.76,237.86,149.75,237.87,149.74z"/>
				</g>
			</g>
			<g>
				<path class="st3" d="M252.58,84.76c-0.07,0.12-5.66-2.94-12.47-6.85c-6.82-3.91-12.29-7.18-12.21-7.3
					c0.07-0.12,5.66,2.94,12.47,6.85C247.19,81.37,252.66,84.64,252.58,84.76z"/>
			</g>
			<g>
				<path class="st3" d="M260.2,132.88c-0.01,0.14-5.32-0.08-11.86-0.5c-6.54-0.42-11.83-0.87-11.82-1.02s5.32,0.08,11.86,0.5
					C254.92,132.28,260.21,132.74,260.2,132.88z"/>
			</g>
			<polygon class="st4" points="305.17,67.9 307.39,64.16 316.19,69.3 314.48,73.36 			"/>
			<g>
				<path class="st3" d="M293.84,94.19c-0.09,0.09-1.41-1.28-2.15-3.45c-0.76-2.17-0.56-4.06-0.43-4.04c0.16,0,0.2,1.81,0.93,3.88
					C292.88,92.65,293.96,94.1,293.84,94.19z"/>
			</g>
			<g>
				<path class="st3" d="M272.31,97.76c0.14-0.04,1.07,2.76,2.07,6.24c1.01,3.49,1.71,6.35,1.57,6.39
					c-0.14,0.04-1.07-2.76-2.07-6.24C272.87,100.66,272.17,97.8,272.31,97.76z"/>
			</g>
			<g>
				<path class="st3" d="M258.81,95.15c-0.09,0.1-1.34-1.38-1.71-3.66c-0.39-2.27,0.3-4.07,0.42-4.01c0.16,0.03-0.28,1.79,0.1,3.93
					C257.96,93.55,258.95,95.07,258.81,95.15z"/>
			</g>
			<polygon class="st11" points="239.64,149.78 239.25,151.71 262.07,152.35 263.06,143.75 260.61,150.35 			"/>
			<polygon class="st5" points="249.68,77.15 249.92,77.41 252.44,79.19 253.7,78.48 252.88,75.69 250.22,73.69 			"/>
			<g>
				<path class="st3" d="M253.08,73.69c0.07-0.01,0.28,0.9,0.56,2.41l0.08,0.43l-0.36-0.26c-0.88-0.62-2.02-1.44-3.29-2.38l0.4-0.16
					c-0.12,0.78-0.25,1.62-0.38,2.48c-0.08,0.52-0.16,1.02-0.24,1.51l-0.05,0.34l-0.31-0.15c-1.92-0.94-3.59-1.79-4.78-2.42
					c-1.19-0.63-1.89-1.03-1.87-1.09c0.03-0.06,0.78,0.24,2.01,0.79c1.23,0.55,2.93,1.34,4.86,2.26l-0.37,0.19
					c0.08-0.49,0.15-0.99,0.23-1.51c0.14-0.86,0.27-1.69,0.4-2.48l0.07-0.41l0.33,0.25c1.26,0.96,2.37,1.82,3.21,2.49l-0.28,0.17
					C253.1,74.63,253.01,73.7,253.08,73.69z"/>
			</g>
		</g>
	</g>
</g>
</svg>
